<mxfile host="app.diagrams.net" modified="2024-04-07T06:11:43.590Z" agent="Mozilla/5.0 (Macintosh; Intel Mac OS X 10_15_7) AppleWebKit/537.36 (KHTML, like Gecko) Chrome/123.0.0.0 Safari/537.36" etag="no1ans2C0EoYf9zTJ8Tq" version="24.0.0" type="github">
  <diagram name="Page-1" id="74e2e168-ea6b-b213-b513-2b3c1d86103e">
    <mxGraphModel dx="1207" dy="664" grid="1" gridSize="10" guides="1" tooltips="1" connect="1" arrows="1" fold="1" page="1" pageScale="1" pageWidth="1100" pageHeight="850" background="none" math="0" shadow="0">
      <root>
        <mxCell id="0" />
        <mxCell id="1" parent="0" />
        <mxCell id="77e6c97f196da883-1" value="单pod安装部署流程" style="swimlane;html=1;childLayout=stackLayout;startSize=20;rounded=0;shadow=0;labelBackgroundColor=none;strokeWidth=1;fontFamily=Verdana;fontSize=8;align=center;" parent="1" vertex="1">
          <mxGeometry x="70" y="40" width="650" height="756" as="geometry">
            <mxRectangle x="70" y="40" width="60" height="20" as="alternateBounds" />
          </mxGeometry>
        </mxCell>
        <mxCell id="77e6c97f196da883-2" value="本地" style="swimlane;html=1;startSize=20;" parent="77e6c97f196da883-1" vertex="1">
          <mxGeometry y="20" width="160" height="736" as="geometry" />
        </mxCell>
        <mxCell id="77e6c97f196da883-8" value="打war包" style="rounded=1;whiteSpace=wrap;html=1;shadow=0;labelBackgroundColor=none;strokeWidth=1;fontFamily=Verdana;fontSize=8;align=center;" parent="77e6c97f196da883-2" vertex="1">
          <mxGeometry x="20" y="65" width="100" height="60" as="geometry" />
        </mxCell>
        <mxCell id="77e6c97f196da883-26" style="edgeStyle=orthogonalEdgeStyle;rounded=1;html=1;labelBackgroundColor=none;startArrow=none;startFill=0;startSize=5;endArrow=classicThin;endFill=1;endSize=5;jettySize=auto;orthogonalLoop=1;strokeWidth=1;fontFamily=Verdana;fontSize=8" parent="77e6c97f196da883-1" source="77e6c97f196da883-8" target="77e6c97f196da883-11" edge="1">
          <mxGeometry relative="1" as="geometry" />
        </mxCell>
        <mxCell id="NYJ9oHOiFf-xtb8jjsaK-16" value="上传" style="edgeLabel;html=1;align=center;verticalAlign=middle;resizable=0;points=[];" vertex="1" connectable="0" parent="77e6c97f196da883-26">
          <mxGeometry x="-0.1247" y="1" relative="1" as="geometry">
            <mxPoint as="offset" />
          </mxGeometry>
        </mxCell>
        <mxCell id="77e6c97f196da883-33" style="edgeStyle=orthogonalEdgeStyle;rounded=1;html=1;labelBackgroundColor=none;startArrow=none;startFill=0;startSize=5;endArrow=classicThin;endFill=1;endSize=5;jettySize=auto;orthogonalLoop=1;strokeWidth=1;fontFamily=Verdana;fontSize=8" parent="77e6c97f196da883-1" source="77e6c97f196da883-13" edge="1">
          <mxGeometry relative="1" as="geometry">
            <mxPoint x="510" y="290" as="targetPoint" />
          </mxGeometry>
        </mxCell>
        <mxCell id="77e6c97f196da883-3" value="打包服务器" style="swimlane;html=1;startSize=20;" parent="77e6c97f196da883-1" vertex="1">
          <mxGeometry x="160" y="20" width="160" height="736" as="geometry" />
        </mxCell>
        <mxCell id="NYJ9oHOiFf-xtb8jjsaK-18" value="" style="edgeStyle=orthogonalEdgeStyle;rounded=0;orthogonalLoop=1;jettySize=auto;html=1;" edge="1" parent="77e6c97f196da883-3" source="77e6c97f196da883-11" target="NYJ9oHOiFf-xtb8jjsaK-17">
          <mxGeometry relative="1" as="geometry" />
        </mxCell>
        <mxCell id="77e6c97f196da883-11" value="/data/sources" style="rounded=1;whiteSpace=wrap;html=1;shadow=0;labelBackgroundColor=none;strokeWidth=1;fontFamily=Verdana;fontSize=8;align=center;" parent="77e6c97f196da883-3" vertex="1">
          <mxGeometry x="30" y="65" width="100" height="60" as="geometry" />
        </mxCell>
        <mxCell id="NYJ9oHOiFf-xtb8jjsaK-20" value="" style="edgeStyle=orthogonalEdgeStyle;rounded=0;orthogonalLoop=1;jettySize=auto;html=1;" edge="1" parent="77e6c97f196da883-3" source="NYJ9oHOiFf-xtb8jjsaK-17" target="NYJ9oHOiFf-xtb8jjsaK-19">
          <mxGeometry relative="1" as="geometry" />
        </mxCell>
        <mxCell id="NYJ9oHOiFf-xtb8jjsaK-17" value="在/data 下&lt;br&gt;修改docker.properties配置" style="rounded=1;whiteSpace=wrap;html=1;shadow=0;labelBackgroundColor=none;strokeWidth=1;fontFamily=Verdana;fontSize=8;align=center;" vertex="1" parent="77e6c97f196da883-3">
          <mxGeometry x="30" y="170" width="100" height="60" as="geometry" />
        </mxCell>
        <mxCell id="NYJ9oHOiFf-xtb8jjsaK-22" value="" style="edgeStyle=orthogonalEdgeStyle;rounded=0;orthogonalLoop=1;jettySize=auto;html=1;" edge="1" parent="77e6c97f196da883-3" source="NYJ9oHOiFf-xtb8jjsaK-19" target="NYJ9oHOiFf-xtb8jjsaK-21">
          <mxGeometry relative="1" as="geometry" />
        </mxCell>
        <mxCell id="NYJ9oHOiFf-xtb8jjsaK-25" value="打包" style="edgeLabel;html=1;align=center;verticalAlign=middle;resizable=0;points=[];" vertex="1" connectable="0" parent="NYJ9oHOiFf-xtb8jjsaK-22">
          <mxGeometry x="-0.4629" y="-2" relative="1" as="geometry">
            <mxPoint as="offset" />
          </mxGeometry>
        </mxCell>
        <mxCell id="NYJ9oHOiFf-xtb8jjsaK-19" value="docker-compose up -d&lt;br&gt;创建pkg容器执行打包流程" style="rounded=1;whiteSpace=wrap;html=1;shadow=0;labelBackgroundColor=none;strokeWidth=1;fontFamily=Verdana;fontSize=8;align=center;" vertex="1" parent="77e6c97f196da883-3">
          <mxGeometry x="30" y="282" width="100" height="60" as="geometry" />
        </mxCell>
        <mxCell id="NYJ9oHOiFf-xtb8jjsaK-24" value="解压" style="edgeStyle=orthogonalEdgeStyle;rounded=0;orthogonalLoop=1;jettySize=auto;html=1;" edge="1" parent="77e6c97f196da883-3" source="NYJ9oHOiFf-xtb8jjsaK-21" target="NYJ9oHOiFf-xtb8jjsaK-23">
          <mxGeometry relative="1" as="geometry" />
        </mxCell>
        <mxCell id="NYJ9oHOiFf-xtb8jjsaK-21" value="在/data/pack/linux目录下生成xxx_buildx.tar.gz" style="rounded=1;whiteSpace=wrap;html=1;shadow=0;labelBackgroundColor=none;strokeWidth=1;fontFamily=Verdana;fontSize=8;align=center;" vertex="1" parent="77e6c97f196da883-3">
          <mxGeometry x="30" y="407" width="100" height="60" as="geometry" />
        </mxCell>
        <mxCell id="NYJ9oHOiFf-xtb8jjsaK-27" value="" style="edgeStyle=orthogonalEdgeStyle;rounded=0;orthogonalLoop=1;jettySize=auto;html=1;" edge="1" parent="77e6c97f196da883-3" source="NYJ9oHOiFf-xtb8jjsaK-23" target="NYJ9oHOiFf-xtb8jjsaK-26">
          <mxGeometry relative="1" as="geometry" />
        </mxCell>
        <mxCell id="NYJ9oHOiFf-xtb8jjsaK-23" value="在scripts目录下，修改wrapper.yaml配置&lt;br&gt;执行脚本&lt;br&gt;&amp;nbsp;./wrapper wrapper.yaml" style="rounded=1;whiteSpace=wrap;html=1;shadow=0;labelBackgroundColor=none;strokeWidth=1;fontFamily=Verdana;fontSize=8;align=center;" vertex="1" parent="77e6c97f196da883-3">
          <mxGeometry x="15" y="517" width="130" height="63" as="geometry" />
        </mxCell>
        <mxCell id="NYJ9oHOiFf-xtb8jjsaK-26" value="在/data/pack/linux目录下生成&lt;br&gt;xxx_cloudnative.tar.gz" style="rounded=1;whiteSpace=wrap;html=1;shadow=0;labelBackgroundColor=none;strokeWidth=1;fontFamily=Verdana;fontSize=8;align=center;" vertex="1" parent="77e6c97f196da883-3">
          <mxGeometry x="15" y="637" width="130" height="63" as="geometry" />
        </mxCell>
        <mxCell id="77e6c97f196da883-4" value="k8s代理vip" style="swimlane;html=1;startSize=20;" parent="77e6c97f196da883-1" vertex="1">
          <mxGeometry x="320" y="20" width="170" height="736" as="geometry" />
        </mxCell>
        <mxCell id="77e6c97f196da883-29" style="edgeStyle=orthogonalEdgeStyle;rounded=1;html=1;labelBackgroundColor=none;startArrow=none;startFill=0;startSize=5;endArrow=classicThin;endFill=1;endSize=5;jettySize=auto;orthogonalLoop=1;strokeWidth=1;fontFamily=Verdana;fontSize=8" parent="77e6c97f196da883-4" source="77e6c97f196da883-12" edge="1">
          <mxGeometry relative="1" as="geometry">
            <mxPoint x="79.99999999999977" y="240.0000000000001" as="targetPoint" />
          </mxGeometry>
        </mxCell>
        <mxCell id="NYJ9oHOiFf-xtb8jjsaK-36" value="" style="edgeStyle=orthogonalEdgeStyle;rounded=0;orthogonalLoop=1;jettySize=auto;html=1;" edge="1" parent="77e6c97f196da883-4" source="NYJ9oHOiFf-xtb8jjsaK-32" target="NYJ9oHOiFf-xtb8jjsaK-35">
          <mxGeometry relative="1" as="geometry" />
        </mxCell>
        <mxCell id="NYJ9oHOiFf-xtb8jjsaK-32" value="将xxx_cloudbative.tar.gz&lt;br&gt;上传到vip服务器" style="whiteSpace=wrap;html=1;fontSize=8;fontFamily=Verdana;rounded=1;shadow=0;labelBackgroundColor=none;strokeWidth=1;" vertex="1" parent="77e6c97f196da883-4">
          <mxGeometry x="40" y="277" width="120" height="60" as="geometry" />
        </mxCell>
        <mxCell id="NYJ9oHOiFf-xtb8jjsaK-38" value="" style="edgeStyle=orthogonalEdgeStyle;rounded=0;orthogonalLoop=1;jettySize=auto;html=1;" edge="1" parent="77e6c97f196da883-4" source="NYJ9oHOiFf-xtb8jjsaK-35" target="NYJ9oHOiFf-xtb8jjsaK-37">
          <mxGeometry relative="1" as="geometry" />
        </mxCell>
        <mxCell id="NYJ9oHOiFf-xtb8jjsaK-35" value="解压xxx_cloudbative.tar.gz&lt;div&gt;&lt;br/&gt;&lt;/div&gt;" style="whiteSpace=wrap;html=1;fontSize=8;fontFamily=Verdana;rounded=1;shadow=0;labelBackgroundColor=none;strokeWidth=1;" vertex="1" parent="77e6c97f196da883-4">
          <mxGeometry x="40" y="395" width="120" height="60" as="geometry" />
        </mxCell>
        <mxCell id="NYJ9oHOiFf-xtb8jjsaK-37" value="在/scripts目录下，执行启动脚本&lt;br&gt;./install --data /安装目录" style="whiteSpace=wrap;html=1;fontSize=8;fontFamily=Verdana;rounded=1;shadow=0;labelBackgroundColor=none;strokeWidth=1;" vertex="1" parent="77e6c97f196da883-4">
          <mxGeometry x="40" y="514" width="120" height="60" as="geometry" />
        </mxCell>
        <mxCell id="77e6c97f196da883-5" value="k8s集群" style="swimlane;html=1;startSize=20;" parent="77e6c97f196da883-1" vertex="1">
          <mxGeometry x="490" y="20" width="160" height="736" as="geometry" />
        </mxCell>
        <mxCell id="77e6c97f196da883-34" style="edgeStyle=orthogonalEdgeStyle;rounded=1;html=1;labelBackgroundColor=none;startArrow=none;startFill=0;startSize=5;endArrow=classicThin;endFill=1;endSize=5;jettySize=auto;orthogonalLoop=1;strokeColor=#000000;strokeWidth=1;fontFamily=Verdana;fontSize=8;fontColor=#000000;" parent="77e6c97f196da883-5" source="77e6c97f196da883-15" edge="1">
          <mxGeometry relative="1" as="geometry">
            <mxPoint x="79.99999999999977" y="320.0000000000002" as="targetPoint" />
          </mxGeometry>
        </mxCell>
        <mxCell id="77e6c97f196da883-35" style="edgeStyle=orthogonalEdgeStyle;rounded=1;html=1;labelBackgroundColor=none;startArrow=none;startFill=0;startSize=5;endArrow=classicThin;endFill=1;endSize=5;jettySize=auto;orthogonalLoop=1;strokeWidth=1;fontFamily=Verdana;fontSize=8" parent="77e6c97f196da883-5" source="77e6c97f196da883-16" edge="1">
          <mxGeometry relative="1" as="geometry">
            <mxPoint x="79.99999999999977" y="400" as="targetPoint" />
          </mxGeometry>
        </mxCell>
        <mxCell id="NYJ9oHOiFf-xtb8jjsaK-39" value="启动容器" style="whiteSpace=wrap;html=1;fontSize=8;fontFamily=Verdana;rounded=1;shadow=0;labelBackgroundColor=none;strokeWidth=1;" vertex="1" parent="77e6c97f196da883-5">
          <mxGeometry x="23" y="514" width="120" height="60" as="geometry" />
        </mxCell>
        <mxCell id="NYJ9oHOiFf-xtb8jjsaK-44" value="停止容器" style="whiteSpace=wrap;html=1;fontSize=8;fontFamily=Verdana;rounded=1;shadow=0;labelBackgroundColor=none;strokeWidth=1;" vertex="1" parent="77e6c97f196da883-5">
          <mxGeometry x="23" y="618" width="120" height="60" as="geometry" />
        </mxCell>
        <mxCell id="NYJ9oHOiFf-xtb8jjsaK-33" value="" style="edgeStyle=orthogonalEdgeStyle;rounded=0;orthogonalLoop=1;jettySize=auto;html=1;entryX=0;entryY=0.5;entryDx=0;entryDy=0;" edge="1" parent="77e6c97f196da883-1" source="NYJ9oHOiFf-xtb8jjsaK-26" target="NYJ9oHOiFf-xtb8jjsaK-32">
          <mxGeometry relative="1" as="geometry" />
        </mxCell>
        <mxCell id="NYJ9oHOiFf-xtb8jjsaK-34" value="scp" style="edgeLabel;html=1;align=center;verticalAlign=middle;resizable=0;points=[];" vertex="1" connectable="0" parent="NYJ9oHOiFf-xtb8jjsaK-33">
          <mxGeometry x="-0.1494" y="-2" relative="1" as="geometry">
            <mxPoint as="offset" />
          </mxGeometry>
        </mxCell>
        <mxCell id="NYJ9oHOiFf-xtb8jjsaK-40" value="" style="edgeStyle=orthogonalEdgeStyle;rounded=0;orthogonalLoop=1;jettySize=auto;html=1;" edge="1" parent="77e6c97f196da883-1" source="NYJ9oHOiFf-xtb8jjsaK-37" target="NYJ9oHOiFf-xtb8jjsaK-39">
          <mxGeometry relative="1" as="geometry" />
        </mxCell>
        <mxCell id="NYJ9oHOiFf-xtb8jjsaK-45" value="" style="edgeStyle=orthogonalEdgeStyle;rounded=0;orthogonalLoop=1;jettySize=auto;html=1;" edge="1" parent="1" source="NYJ9oHOiFf-xtb8jjsaK-41" target="NYJ9oHOiFf-xtb8jjsaK-44">
          <mxGeometry relative="1" as="geometry" />
        </mxCell>
        <mxCell id="NYJ9oHOiFf-xtb8jjsaK-41" value="在/tsoc-csa目录下，执行停止脚本&lt;br&gt;./uninstall" style="whiteSpace=wrap;html=1;fontSize=8;fontFamily=Verdana;rounded=1;shadow=0;labelBackgroundColor=none;strokeWidth=1;" vertex="1" parent="1">
          <mxGeometry x="420" y="676" width="129" height="64" as="geometry" />
        </mxCell>
      </root>
    </mxGraphModel>
  </diagram>
</mxfile>
